<svg id="Capa_1" enable-background="new 0 0 512 512" height="512" viewBox="0 0 512 512" width="512" xmlns="http://www.w3.org/2000/svg"><g><g><path d="m456.824 512h-401.648c-30.424 0-55.176-24.752-55.176-55.176v-401.648c0-30.424 24.752-55.176 55.176-55.176h401.648c30.424 0 55.176 24.752 55.176 55.176v401.648c0 30.424-24.752 55.176-55.176 55.176z" fill="#555a66"/></g><path d="m456.824 0h-200.824v512h200.824c30.424 0 55.176-24.752 55.176-55.176v-401.648c0-30.424-24.752-55.176-55.176-55.176z" fill="#3d444d"/><g><path d="m256 451.75c-107.937 0-195.75-87.813-195.75-195.75s87.813-195.75 195.75-195.75 195.75 87.813 195.75 195.75-87.813 195.75-195.75 195.75z" fill="#707789"/></g><path d="m451.75 256c0-107.937-87.813-195.75-195.75-195.75v391.5c107.937 0 195.75-87.813 195.75-195.75z" fill="#555a66"/><path d="m256 241v133.605c0 9.76 9.189 16.976 18.645 14.557 32.505-8.316 56.605-37.853 56.605-72.913 0-41.492-33.757-75.249-75.25-75.249z" fill="#23272b"/><path d="m256 137.395c0-9.76-9.189-16.976-18.644-14.557-32.505 8.316-56.606 37.853-56.606 72.913 0 41.493 33.757 75.25 75.25 75.25z" fill="#3d444d"/><path d="m317.793 180.75c-41.493 0-75.25 33.757-75.25 75.25h133.605c9.76 0 16.976-9.189 14.557-18.644-8.315-32.505-37.851-56.606-72.912-56.606z" fill="#23272b"/><path d="m198.663 331.25c41.493 0 75.25-33.757 75.25-75.25h-133.605c-9.76 0-16.976 9.189-14.557 18.645 8.315 32.504 37.852 56.605 72.912 56.605z" fill="#3d444d"/><g><g><path d="m75.25 451.75c7.846 0 15.363-6.899 15-15-.364-8.127-6.591-15-15-15-7.846 0-15.363 6.899-15 15 .364 8.127 6.591 15 15 15z" fill="#3d444d"/></g></g><g><g><path d="m436.75 451.75c7.846 0 15.363-6.899 15-15-.364-8.127-6.591-15-15-15-7.846 0-15.363 6.899-15 15 .364 8.127 6.591 15 15 15z" fill="#23272b"/></g></g><g><g><path d="m75.25 90.25c7.846 0 15.363-6.899 15-15-.364-8.127-6.591-15-15-15-7.846 0-15.363 6.899-15 15 .364 8.127 6.591 15 15 15z" fill="#3d444d"/></g></g><g><g><path d="m436.75 90.25c7.846 0 15.363-6.899 15-15-.364-8.127-6.591-15-15-15-7.846 0-15.363 6.899-15 15 .364 8.127 6.591 15 15 15z" fill="#23272b"/></g></g><circle cx="256" cy="259" fill="#555a66" r="45.759"/><path d="m301.759 259c0-25.231-20.527-45.759-45.759-45.759v91.518c25.231 0 45.759-20.528 45.759-45.759z" fill="#3d444d"/></g></svg>