<svg id="Layer_3" enable-background="new 0 0 64 64" height="512" viewBox="0 0 64 64" width="512" xmlns="http://www.w3.org/2000/svg"><g><path d="m2 2h60v60h-60z" fill="#59ac98"/><path d="m43 12h5c2.209 0 4 1.791 4 4v32c0 2.209-1.791 4-4 4h-5c-1.105 0-2 .895-2 2 0 1.105-.895 2-2 2h-14c-1.105 0-2-.895-2-2 0-1.105-.895-2-2-2h-5c-2.209 0-4-1.791-4-4v-32c0-2.209 1.791-4 4-4h5c1.105 0 2-.895 2-2 0-1.105.895-2 2-2h14c1.105 0 2 .895 2 2 0 1.105.895 2 2 2z" fill="#cbc3b6"/><g fill="#e7e4dd"><path d="m12 49h-1c-1.105 0-2-.895-2-2v-2h-1c-1.105 0-2-.895-2-2v-5c0-1.105.895-2 2-2 .552 0 1-.448 1-1v-6c0-.552-.448-1-1-1-1.105 0-2-.895-2-2v-5c0-1.105.895-2 2-2h1v-2c0-1.105.895-2 2-2h1"/><path d="m52 49h1c1.105 0 2-.895 2-2v-2h1c1.105 0 2-.895 2-2v-5c0-1.105-.895-2-2-2-.552 0-1-.448-1-1v-6c0-.552.448-1 1-1 1.105 0 2-.895 2-2v-5c0-1.105-.895-2-2-2h-1v-2c0-1.105-.895-2-2-2h-1"/><path d="m6 6h4v4h-4z"/><path d="m54 6h4v4h-4z"/></g><path d="m54 54h4v4h-4z" fill="#cbc3b6"/><path d="m6 54h4v4h-4z" fill="#cbc3b6"/><g><path d="m4.999 12h1.999v2h-1.999z" fill="#cbc3b6"/></g><g><path d="m4.999 15h1.999v2h-1.999z" fill="#f2c351"/></g><g><path d="m4 29h1.999v2h-1.999z" fill="#e7e4dd"/></g><g><path d="m4 33h1.999v2h-1.999z" fill="#f2c351"/></g><g><path d="m5 50h1.999v2h-1.999z" fill="#e7e4dd"/></g><g><path d="m5 47h1.999v2h-1.999z" fill="#f2c351"/></g><g><path d="m56.999 12h1.999v2h-1.999z" fill="#f2c351"/></g><g><path d="m56.999 15h1.999v2h-1.999z" fill="#f2c351"/></g><g><path d="m57.999 29h1.999v2h-1.999z" fill="#e7e4dd"/></g><g><path d="m58 33h2v2h-2z" fill="#f2c351"/></g><g><path d="m56.999 50h1.999v2h-1.999z" fill="#f2c351"/></g><g><path d="m56.999 47h1.999v2h-1.999z" fill="#f2c351"/></g><path d="m12 2 2 3h36l2-3" fill="#f7d881"/><g><path d="m48.999 55h1.999v2h-1.999z" fill="#f2c351"/></g><g><path d="m48.999 58h1.999v2h-1.999z" fill="#f2c351"/></g><g><path d="m46 56h1.999v2h-1.999z" fill="#f2c351"/></g><g><path d="m43 55h1.999v2h-1.999z" fill="#f2c351"/></g><g><path d="m43 58h1.999v2h-1.999z" fill="#f2c351"/></g><g><path d="m19 55h1.999v2h-1.999z" fill="#f2c351"/></g><g><path d="m19 58h1.999v2h-1.999z" fill="#e7e4dd"/></g><g><path d="m16 56h1.999v2h-1.999z" fill="#e7e4dd"/></g><g><path d="m13 55h1.999v2h-1.999z" fill="#f2c351"/></g><g><path d="m13 58h1.999v2h-1.999z" fill="#f2c351"/></g><g><path d="m29.999 37.999h-2v-10.999c0-.553.447-1 1-1h3.001c2.204 0 3.998 1.794 3.998 4s-1.794 4-3.998 4h-2.001zm0-5.999h2.001c1.102 0 1.998-.897 1.998-2 0-1.104-.896-2-1.998-2h-2.001z" fill="#e7e4dd"/></g><g><path d="m42 37.999c-2.758 0-5.001-2.243-5.001-4.999v-7h2v7c0 1.654 1.346 2.999 3 2.999 1.653 0 2.999-1.345 2.999-2.999v-7h2v7c0 2.756-2.242 4.999-4.998 4.999z" fill="#e7e4dd"/></g><g><path d="m16.999 40h29.999v2h-29.999z" fill="#e7e4dd"/></g><g><path d="m16.999 22h29.999v2h-29.999z" fill="#e7e4dd"/></g><g><path d="m31.999 43h14.999v2h-14.999z" fill="#e7e4dd"/></g><g><path d="m23 38h-2.001c-2.206 0-4-1.794-4-4v-4c0-2.206 1.794-4 4.001-4h2c2.204 0 3.998 1.794 3.998 3.999h-2c0-1.102-.896-1.999-1.998-1.999h-2c-1.104 0-2.001.897-2.001 2v4c0 1.103.896 2 2 2h2.001c1.102 0 1.998-.897 1.998-2h2c0 2.206-1.794 4-3.998 4z" fill="#e7e4dd"/></g></g></svg>