<svg id="Layer_3" enable-background="new 0 0 64 64" height="512" viewBox="0 0 64 64" width="512" xmlns="http://www.w3.org/2000/svg"><g><path d="m9 2h46v60h-46z" fill="#808080"/><path d="m55 38h-4l-8 2.494h-28.296l-1.704-.494h-4v-38h46z" fill="#243242"/><path d="m9 29.829c1.029.113 2.074.175 3.133.175 15.574 0 28.223-12.493 28.489-28.004h-31.622z" fill="#4d5d7a"/><path d="m13 25.999h15.1v18.001h-15.1z" fill="#cbc3b6"/><path d="m13 25v-15.5c0-1.933 1.567-3.5 3.5-3.5 1.933 0 3.5 1.567 3.5 3.5v15.5z" fill="#cbc3b6"/><path d="m27.159 43.378c-8.149-2.141-14.159-9.558-14.159-18.378 0-10.493 8.507-19 19-19s19 8.507 19 19c0 9.838-7.476 17.929-17.057 18.902" fill="#8892a0"/><path d="m39.939 7.755c-2.419-1.116-5.101-1.755-7.939-1.755-10.493 0-19 8.507-19 19 0 1.718.234 3.38.661 4.962 12.91-.682 23.534-9.956 26.278-22.207z" fill="#a8b0bc"/><circle cx="32" cy="25" fill="#a8b0bc" r="9"/><path d="m36.063 16.977c-1.222-.62-2.599-.977-4.063-.977-4.971 0-9 4.029-9 9 0 .934.143 1.836.407 2.683 5.206-2.245 9.604-5.997 12.656-10.706z" fill="#c1c8d1"/><path d="m27 62 4-4h24v4z" fill="#243242"/><path d="m50 6h-18c6.011 0 11.37 2.791 14.852 7.148l3.148-3.148c-1.105 0-2-.895-2-2s.895-2 2-2z" fill="#cbc3b6"/><circle cx="32" cy="25" fill="#758190" r="2"/><g><path d="m32.499 20.999c-.827 0-1.5-.673-1.5-1.5s.673-1.5 1.5-1.5c.826 0 1.499.673 1.499 1.5s-.673 1.5-1.499 1.5zm0-1.999c-.276 0-.5.224-.5.5 0 .275.224.5.5.5.275 0 .499-.224.499-.5s-.224-.5-.499-.5z" fill="#4d5d7a"/></g><g><path d="m36.5 22.999c-.827 0-1.5-.673-1.5-1.5s.673-1.5 1.5-1.5c.826 0 1.499.673 1.499 1.5s-.673 1.5-1.499 1.5zm0-1.999c-.276 0-.5.224-.5.5 0 .275.224.5.5.5.275 0 .499-.224.499-.5s-.224-.5-.499-.5z" fill="#243242"/></g><g><path d="m37.5 26.999c-.827 0-1.5-.673-1.5-1.5s.673-1.5 1.5-1.5c.826 0 1.499.673 1.499 1.5s-.673 1.5-1.499 1.5zm0-1.999c-.276 0-.5.224-.5.5 0 .275.224.5.5.5.275 0 .499-.224.499-.5s-.224-.5-.499-.5z" fill="#243242"/></g><g><path d="m35.5 30.999c-.827 0-1.5-.673-1.5-1.5s.673-1.5 1.5-1.5c.826 0 1.499.673 1.499 1.5s-.673 1.5-1.499 1.5zm0-1.999c-.276 0-.5.224-.5.5 0 .275.224.5.5.5.275 0 .499-.224.499-.5s-.224-.5-.499-.5z" fill="#243242"/></g><g><path d="m31.5 31.999c-.827 0-1.5-.673-1.5-1.5s.673-1.5 1.5-1.5c.826 0 1.499.673 1.499 1.5s-.673 1.5-1.499 1.5zm0-1.999c-.276 0-.5.224-.5.5 0 .275.224.5.5.5.275 0 .499-.224.499-.5s-.224-.5-.499-.5z" fill="#243242"/></g><g><path d="m27.5 29.999c-.827 0-1.5-.673-1.5-1.5s.673-1.5 1.5-1.5c.826 0 1.499.673 1.499 1.5s-.673 1.5-1.499 1.5zm0-1.999c-.276 0-.5.224-.5.5 0 .275.224.5.5.5.275 0 .499-.224.499-.5s-.224-.5-.499-.5z" fill="#243242"/></g><g><path d="m26.5 25.999c-.827 0-1.5-.673-1.5-1.5s.673-1.5 1.5-1.5c.826 0 1.499.673 1.499 1.5s-.673 1.5-1.499 1.5zm0-1.999c-.276 0-.5.224-.5.5 0 .275.224.5.5.5.275 0 .499-.224.499-.5s-.224-.5-.499-.5z" fill="#4d5d7a"/></g><g><path d="m28.5 21.999c-.827 0-1.5-.673-1.5-1.5s.673-1.5 1.5-1.5c.826 0 1.499.673 1.499 1.5s-.673 1.5-1.499 1.5zm0-1.999c-.276 0-.5.224-.5.5 0 .275.224.5.5.5.275 0 .499-.224.499-.5s-.224-.5-.499-.5z" fill="#4d5d7a"/></g><g><path d="m16.499 10.999c-.827 0-1.5-.673-1.5-1.5s.673-1.5 1.5-1.5c.826 0 1.499.673 1.499 1.5s-.673 1.5-1.499 1.5zm0-1.999c-.276 0-.5.224-.5.5 0 .275.224.5.5.5.275 0 .499-.224.499-.5s-.224-.5-.499-.5z" fill="#243242"/></g><g><path d="m16.499 41.998c-.827 0-1.5-.673-1.5-1.499 0-.827.673-1.5 1.5-1.5.826 0 1.499.673 1.499 1.5 0 .826-.673 1.499-1.499 1.499zm0-1.999c-.276 0-.5.224-.5.5 0 .275.224.499.5.499.275 0 .499-.224.499-.499 0-.276-.224-.5-.499-.5z" fill="#243242"/></g><path d="m38 37-17 10v3l4 4h3z" fill="#e7e4dd"/><g><path d="m25.999 50.998c-1.104 0-2-.896-2-1.999 0-1.104.896-2 2-2 1.103 0 1.999.896 1.999 2 0 1.103-.896 1.999-1.999 1.999z" fill="#243242"/></g><path d="m39 51h4v4h-4z" fill="#f7d881"/><path d="m47 51h4v4h-4z" fill="#f7d881"/><g><path d="m49.998 50.998h-2v-2.999h-5.999v2.999h-2v-3.999c0-.553.447-1 1-1h7.999c.553 0 1 .447 1 1z" fill="#e7e4dd"/></g><path d="m26 57c-4.418 0-8-3.582-8-8v-2h-5v12h13z" fill="#cbc3b6"/><g><path d="m16.499 56.998c-.827 0-1.5-.673-1.5-1.499 0-.827.673-1.5 1.5-1.5.826 0 1.499.673 1.499 1.5 0 .826-.673 1.499-1.499 1.499zm0-1.999c-.276 0-.5.224-.5.5 0 .275.224.499.5.499.275 0 .499-.224.499-.499 0-.276-.224-.5-.499-.5z" fill="#243242"/></g><circle cx="50" cy="8" fill="#758190" r="2"/><g><path d="m51.499 42.998c-.827 0-1.5-.673-1.5-1.499 0-.827.673-1.5 1.5-1.5.826 0 1.499.673 1.499 1.5 0 .826-.673 1.499-1.499 1.499zm0-1.999c-.276 0-.5.224-.5.5 0 .275.224.499.5.499.275 0 .499-.224.499-.499 0-.276-.224-.5-.499-.5z" fill="#243242"/></g><path d="m40.268 6c-4.107 0-8.268 0-8.268 0 2.836 0 5.523.628 7.94 1.741.128-.573.235-1.155.328-1.741z" fill="#e7e4dd"/></g></svg>