<svg id="Layer_3" enable-background="new 0 0 64 64" height="512" viewBox="0 0 64 64" width="512" xmlns="http://www.w3.org/2000/svg"><g><path d="m9 12h53v33h-5c-1.105 0-2 .895-2 2 0 1.105.895 2 2 2h2v4h-8v-3.5c0-.828-.672-1.5-1.5-1.5-.828 0-1.5.672-1.5 1.5v3.5h-20v-3.5c0-.828-.672-1.5-1.5-1.5-.828 0-1.5.672-1.5 1.5v3.5h-6v-4.5c0-.828-.672-1.5-1.5-1.5-.828 0-1.5.672-1.5 1.5v2.5h-7" fill="#59ac98"/><path d="m28 19h30v22h-30z" fill="#c1c8d1"/><circle cx="43" cy="30" fill="#a8b0bc" r="8"/><path d="m48.092 49h-20.184c.056.157.092.324.092.5v3.5h20v-3.5c0-.176.036-.343.092-.5z" fill="#f7d881"/><path d="m5 54h4v-44h-7v4h3z" fill="#e7e4dd"/><g><path d="m12.499 48.998c-.827 0-1.5-.673-1.5-1.499 0-.827.673-1.5 1.5-1.5.826 0 1.499.673 1.499 1.5 0 .826-.673 1.499-1.499 1.499zm0-1.999c-.276 0-.5.224-.5.5 0 .275.224.499.5.499.275 0 .499-.224.499-.499 0-.276-.224-.5-.499-.5z" fill="#243242"/></g><path d="m51 30c0-.34-.028-.672-.069-1.001h-4.072c-.363-1.401-1.459-2.496-2.86-2.858l.001-4.072c-.329-.041-.661-.069-1-.069s-.672.028-1 .069l-.001 4.073c-1.4.363-2.494 1.457-2.857 2.857h-4.072c-.042.329-.07.661-.07 1.001 0 .339.028.67.069.998h4.072c.362 1.401 1.457 2.497 2.858 2.86l.001 4.073c.328.041.661.069 1 .069s.671-.028 1-.069l-.001-4.072c1.402-.363 2.498-1.459 2.861-2.861h4.072c.04-.328.068-.659.068-.998z" fill="#758190"/><path d="m28 34h-4v4h4" fill="#e7e4dd"/><path d="m28 19h-4v4h4" fill="#e7e4dd"/><g><path d="m24.499 42.998c-.827 0-1.5-.673-1.5-1.499 0-.827.673-1.5 1.5-1.5.826 0 1.499.673 1.499 1.5 0 .826-.673 1.499-1.499 1.499zm0-1.999c-.276 0-.5.224-.5.5 0 .275.224.499.5.499.275 0 .499-.224.499-.499 0-.276-.224-.5-.499-.5z" fill="#243242"/></g><g><path d="m24.499 31.998c-.827 0-1.5-.673-1.5-1.499 0-.827.673-1.5 1.5-1.5.826 0 1.499.673 1.499 1.5 0 .826-.673 1.499-1.499 1.499zm0-1.999c-.276 0-.5.224-.5.5 0 .275.224.499.5.499.275 0 .499-.224.499-.499 0-.276-.224-.5-.499-.5z" fill="#243242"/></g><g><path d="m24.499 27.998c-.827 0-1.5-.673-1.5-1.499 0-.827.673-1.5 1.5-1.5.826 0 1.499.673 1.499 1.5 0 .826-.673 1.499-1.499 1.499zm0-1.999c-.276 0-.5.224-.5.5 0 .275.224.499.5.499.275 0 .499-.224.499-.499 0-.276-.224-.5-.499-.5z" fill="#243242"/></g><g><path d="m20.5 27.998c-.827 0-1.5-.673-1.5-1.499 0-.827.673-1.5 1.5-1.5.826 0 1.499.673 1.499 1.5 0 .826-.673 1.499-1.499 1.499zm0-1.999c-.276 0-.5.224-.5.5 0 .275.224.499.5.499.275 0 .499-.224.499-.499 0-.276-.224-.5-.499-.5z" fill="#243242"/></g><g><path d="m13.5 20.998c-.827 0-1.5-.673-1.5-1.499 0-.827.673-1.5 1.5-1.5.826 0 1.499.673 1.499 1.5 0 .826-.673 1.499-1.499 1.499zm0-1.999c-.276 0-.5.224-.5.5 0 .275.224.499.5.499.275 0 .499-.224.499-.499 0-.276-.224-.5-.499-.5z" fill="#243242"/></g><g><path d="m32.5 16.998c-.827 0-1.5-.673-1.5-1.499 0-.827.673-1.5 1.5-1.5.826 0 1.499.673 1.499 1.5 0 .826-.673 1.499-1.499 1.499zm0-1.999c-.276 0-.5.224-.5.5 0 .275.224.499.5.499.275 0 .499-.224.499-.499 0-.276-.224-.5-.499-.5z" fill="#243242"/></g><g><path d="m20.5 31.998c-.827 0-1.5-.673-1.5-1.499 0-.827.673-1.5 1.5-1.5.826 0 1.499.673 1.499 1.5 0 .826-.673 1.499-1.499 1.499zm0-1.999c-.276 0-.5.224-.5.5 0 .275.224.499.5.499.275 0 .499-.224.499-.499 0-.276-.224-.5-.499-.5z" fill="#243242"/></g><path d="m17 19h4v4h-4z" fill="#f7d881"/><path d="m37 19v-4h4v4" fill="#f7d881"/><g><path d="m53.998 24.998h-11.998v-2h10.998v-5.999h-11.999v-2h12.999c.553 0 1 .447 1 1v7.999c0 .553-.447 1-1 1z" fill="#e47c6e"/></g><g><path d="m31 48.999h1.999v3.999h-1.999z" fill="#e39854"/></g><g><path d="m35 48.999h1.999v3.999h-1.999z" fill="#e39854"/></g><g><path d="m39 48.999h1.999v3.999h-1.999z" fill="#e39854"/></g><g><path d="m43 48.999h1.999v3.999h-1.999z" fill="#e39854"/></g><path d="m9 23h4v21h-4" fill="#f7d881"/><g><path d="m8.999 25.999h3.999v1.999h-3.999z" fill="#e39854"/></g><g><path d="m8.999 29.999h3.999v1.999h-3.999z" fill="#e39854"/></g><g><path d="m8.999 33.999h3.999v1.999h-3.999z" fill="#e39854"/></g><g><path d="m8.999 37.999h3.999v1.999h-3.999z" fill="#e39854"/></g><g><path d="m1.999 16.999h2.999v1.999h-2.999z" fill="#d5cec2"/></g><g><path d="m1.999 22.999h2.999v1.999h-2.999z" fill="#d5cec2"/></g><g><path d="m1.999 28.999h2.999v1.999h-2.999z" fill="#d5cec2"/></g><g><path d="m1.999 34.999h2.999v1.999h-2.999z" fill="#d5cec2"/></g><g><path d="m1.999 40.999h2.999v1.999h-2.999z" fill="#d5cec2"/></g><g><path d="m1.999 46.999h2.999v1.999h-2.999z" fill="#d5cec2"/></g><g><path d="m28.999 43.999h17.999v1.999h-17.999z" fill="#4d5d7a"/></g><g><path d="m11.999 13.999h15.999v1.999h-15.999z" fill="#4d5d7a"/></g><g><path d="m58.499 16.998c-.827 0-1.5-.673-1.5-1.499 0-.827.673-1.5 1.5-1.5.826 0 1.499.673 1.499 1.5 0 .826-.673 1.499-1.499 1.499zm0-1.999c-.276 0-.5.224-.5.5 0 .275.224.499.5.499.275 0 .499-.224.499-.499 0-.276-.224-.5-.499-.5z" fill="#243242"/></g></g></svg>