<svg id="Layer_3" enable-background="new 0 0 64 64" height="512" viewBox="0 0 64 64" width="512" xmlns="http://www.w3.org/2000/svg"><g><path d="m2 53h25v-2c0-1.105.895-2 2-2 1.105 0 2 .895 2 2v2h31v-10h-1c-1.105 0-2-.895-2-2 0-1.105.895-2 2-2h1v-4h-60v4h1c1.105 0 2 .895 2 2 0 1.105-.895 2-2 2h-1z" fill="#59ac98"/><path d="m30.723 50c.171.295.277.634.277 1v2h24v-3z" fill="#f7d881"/><path d="m27.277 50h-18.277v3h18v-2c0-.366.106-.705.277-1z" fill="#f7d881"/><g><path d="m5.5 50.999c-.827 0-1.5-.673-1.5-1.5s.672-1.499 1.5-1.499c.827 0 1.5.673 1.5 1.5-.001.826-.674 1.499-1.5 1.499zm0-1.999c-.276 0-.5.224-.5.5 0 .275.224.5.5.5.275 0 .5-.224.5-.5-.001-.276-.225-.5-.5-.5z" fill="#f7d881"/></g><g><path d="m58.5 50.999c-.827 0-1.5-.673-1.5-1.5s.673-1.5 1.5-1.5 1.5.673 1.5 1.5c-.001.827-.674 1.5-1.5 1.5zm0-1.999c-.276 0-.5.224-.5.5 0 .275.224.5.5.5.275 0 .5-.224.5-.5-.001-.276-.225-.5-.5-.5z" fill="#f7d881"/></g><g><path d="m11 50h2v3h-2z" fill="#e39854"/></g><g><path d="m14 50h2v3h-2z" fill="#e39854"/></g><g><path d="m17 50h2v3h-2z" fill="#e39854"/></g><g><path d="m20 50h2v3h-2z" fill="#e39854"/></g><g><path d="m23 50h2v3h-2z" fill="#e39854"/></g><g><path d="m33 50h2v3h-2z" fill="#e39854"/></g><g><path d="m36 50h2v3h-2z" fill="#e39854"/></g><g><path d="m39 50h2v3h-2z" fill="#e39854"/></g><g><path d="m42 50h2v3h-2z" fill="#e39854"/></g><g><path d="m45 50h2v3h-2z" fill="#e39854"/></g><g><path d="m48 50h2v3h-2z" fill="#e39854"/></g><g><path d="m51 50h2v3h-2z" fill="#e39854"/></g><g fill="#243242"><path d="m38 40h4v6h-4z"/><path d="m45 40h4v6h-4z"/><path d="m52 40h4v6h-4z"/></g><path d="m29 45h-18c-1.105 0-2-.895-2-2v-2c0-1.105.895-2 2-2h18c1.105 0 2 .895 2 2v2c0 1.105-.895 2-2 2z" fill="#c1c8d1"/><g><path d="m33 45h2v2h-2z" fill="#4d5d7a"/></g><g><path d="m33 42h2v2h-2z" fill="#4d5d7a"/></g><g><path d="m33 39h2v2h-2z" fill="#4d5d7a"/></g><path d="m38 46h.674c1.423-1.257 2.326-3.091 2.326-5.139 0-.292-.024-.578-.06-.861h-2.94z" fill="#4d5d7a"/><path d="m45 46h.674c1.423-1.257 2.326-3.091 2.326-5.139 0-.292-.024-.578-.06-.861h-2.94z" fill="#4d5d7a"/><path d="m52 46h.674c1.423-1.257 2.326-3.091 2.326-5.139 0-.292-.024-.578-.06-.861h-2.94z" fill="#4d5d7a"/><path d="m2 29h25v-2c0-1.105.895-2 2-2 1.105 0 2 .895 2 2v2h31v-10h-1c-1.105 0-2-.895-2-2 0-1.105.895-2 2-2h1v-4h-60v4h1c1.105 0 2 .895 2 2 0 1.105-.895 2-2 2h-1z" fill="#59ac98"/><path d="m30.723 26c.171.295.277.634.277 1v2h24v-3z" fill="#f7d881"/><path d="m27.277 26h-18.277v3h18v-2c0-.366.106-.705.277-1z" fill="#f7d881"/><g><path d="m5.5 26.999c-.827 0-1.5-.673-1.5-1.5s.672-1.499 1.5-1.499c.827 0 1.5.673 1.5 1.5-.001.826-.674 1.499-1.5 1.499zm0-1.999c-.276 0-.5.224-.5.5 0 .275.224.5.5.5.275 0 .5-.224.5-.5-.001-.276-.225-.5-.5-.5z" fill="#f7d881"/></g><g><path d="m58.5 26.999c-.827 0-1.5-.673-1.5-1.5s.673-1.5 1.5-1.5 1.5.673 1.5 1.5c-.001.827-.674 1.5-1.5 1.5zm0-1.999c-.276 0-.5.224-.5.5 0 .275.224.5.5.5.275 0 .5-.224.5-.5-.001-.276-.225-.5-.5-.5z" fill="#f7d881"/></g><g><path d="m11 26h2v3h-2z" fill="#e39854"/></g><g><path d="m14 26h2v3h-2z" fill="#e39854"/></g><g><path d="m17 26h2v3h-2z" fill="#e39854"/></g><g><path d="m20 26h2v3h-2z" fill="#e39854"/></g><g><path d="m23 26h2v3h-2z" fill="#e39854"/></g><g><path d="m33 26h2v3h-2z" fill="#e39854"/></g><g><path d="m36 26h2v3h-2z" fill="#e39854"/></g><g><path d="m39 26h2v3h-2z" fill="#e39854"/></g><g><path d="m42 26h2v3h-2z" fill="#e39854"/></g><g><path d="m45 26h2v3h-2z" fill="#e39854"/></g><g><path d="m48 26h2v3h-2z" fill="#e39854"/></g><g><path d="m51 26h2v3h-2z" fill="#e39854"/></g><path d="m38 16h4v6h-4z" fill="#243242"/><path d="m45 16h4v6h-4z" fill="#243242"/><path d="m52 16h4v6h-4z" fill="#243242"/><path d="m29 21h-18c-1.105 0-2-.895-2-2v-2c0-1.105.895-2 2-2h18c1.105 0 2 .895 2 2v2c0 1.105-.895 2-2 2z" fill="#c1c8d1"/><g><path d="m33 21h2v2h-2z" fill="#4d5d7a"/></g><g><path d="m33 18h2v2h-2z" fill="#4d5d7a"/></g><g><path d="m33 15h2v2h-2z" fill="#4d5d7a"/></g><path d="m38 22h.674c1.423-1.257 2.326-3.091 2.326-5.139 0-.292-.024-.578-.06-.861h-2.94z" fill="#4d5d7a"/><path d="m45 22h.674c1.423-1.257 2.326-3.091 2.326-5.139 0-.292-.024-.578-.06-.861h-2.94z" fill="#4d5d7a"/><path d="m52 22h.674c1.423-1.257 2.326-3.091 2.326-5.139 0-.292-.024-.578-.06-.861h-2.94z" fill="#4d5d7a"/></g></svg>