<svg id="Layer_3" enable-background="new 0 0 64 64" height="512" viewBox="0 0 64 64" width="512" xmlns="http://www.w3.org/2000/svg"><g><path d="m10 10h50c1.105 0 2 .895 2 2v40c0 1.105-.895 2-2 2h-56c-1.105 0-2-.895-2-2v-40c0-1.105.895-2 2-2h2v2c0 1.105.895 2 2 2 1.105 0 2-.895 2-2z" fill="#a8b0bc"/><path d="m10 12c0 1.105-.895 2-2 2s-2-.895-2-2v-2h-2c-1.105 0-2 .895-2 2v34.724c1.209.18 2.445.275 3.704.275 13.807 0 25-11.193 25-25 0-4.349-1.112-8.438-3.065-12h-17.639z" fill="#c1c8d1"/><path d="m14 14h40v36h-40z" fill="#758190"/><path d="m14 45.584c9.728-3.423 16.703-12.686 16.703-23.584 0-2.799-.467-5.487-1.315-8h-15.388z" fill="#8892a0"/><path d="m7 46h-5v-28h5c.552 0 1 .448 1 1v26c0 .552-.448 1-1 1z" fill="#e7e4dd"/><g><path d="m26.499 28.999h-1.001c-1.929 0-3.498-1.57-3.498-3.499v-.501h2v.501c0 .827.672 1.499 1.498 1.499h1.001c.827 0 1.5-.672 1.5-1.499 0-.828-.673-1.501-1.5-1.501h-1.001c-1.929 0-3.498-1.57-3.498-3.499 0-1.931 1.569-3.5 3.498-3.5h1.001c1.931 0 3.5 1.57 3.5 3.5v.5h-2v-.5c0-.827-.673-1.5-1.5-1.5h-1.001c-.826 0-1.498.672-1.498 1.5 0 .827.672 1.5 1.498 1.5h1.001c1.931 0 3.5 1.57 3.5 3.5 0 1.929-1.569 3.499-3.5 3.499z" fill="#c1c8d1"/></g><g><path d="m35.499 28.999h-1.001c-1.929 0-3.498-1.57-3.498-3.499v-.501h2v.501c0 .827.672 1.499 1.498 1.499h1.001c.827 0 1.5-.672 1.5-1.499 0-.828-.673-1.501-1.5-1.501h-1.001c-1.929 0-3.498-1.57-3.498-3.499 0-1.931 1.569-3.5 3.498-3.5h1.001c1.931 0 3.5 1.57 3.5 3.5v.5h-2v-.5c0-.827-.673-1.5-1.5-1.5h-1.001c-.826 0-1.498.672-1.498 1.5 0 .827.672 1.5 1.498 1.5h1.001c1.931 0 3.5 1.57 3.5 3.5 0 1.929-1.569 3.499-3.5 3.499z" fill="#c1c8d1"/></g><g><path d="m44 28.999h-3c-.553 0-1-.447-1-1v-9.999c0-.553.447-1 1-1h3c2.205 0 3.999 1.794 3.999 4v4c0 2.205-1.794 3.999-3.999 3.999zm-2-2h2c1.103 0 1.999-.897 1.999-2v-4c0-1.103-.896-2-1.999-2h-2z" fill="#c1c8d1"/></g><g><path d="m16.999 30h31.001v2h-31.001z" fill="#243242"/></g><g><path d="m30 33h17.999v2h-17.999z" fill="#243242"/></g><g><path d="m53.999 14.999h3.001v2h-3.001z" fill="#e7e4dd"/></g><g><path d="m53.999 18.999h3.001v2h-3.001z" fill="#e7e4dd"/></g><g><path d="m53.999 22.999h3.001v2h-3.001z" fill="#e7e4dd"/></g><g><path d="m53.999 27h3.001v2h-3.001z" fill="#e7e4dd"/></g><g><path d="m53.999 31h3.001v2h-3.001z" fill="#e7e4dd"/></g><g><path d="m53.999 35h3.001v2h-3.001z" fill="#e7e4dd"/></g><g><path d="m53.999 39h3.001v2h-3.001z" fill="#e7e4dd"/></g><g><path d="m53.999 43h3.001v2h-3.001z" fill="#e7e4dd"/></g><g><path d="m53.999 47h3.001v2h-3.001z" fill="#e7e4dd"/></g><g><path d="m1.999 21h5.999v2h-5.999z" fill="#d5cec2"/></g><g><path d="m1.999 25h5.999v2h-5.999z" fill="#d5cec2"/></g><g><path d="m1.999 29h5.999v2h-5.999z" fill="#d5cec2"/></g><g><path d="m1.999 33h5.999v2h-5.999z" fill="#d5cec2"/></g><g><path d="m1.999 37h5.999v2h-5.999z" fill="#d5cec2"/></g><g><path d="m1.999 41h5.999v2h-5.999z" fill="#d5cec2"/></g><g><path d="m17.499 47.999c-.827 0-1.5-.673-1.5-1.5s.673-1.5 1.5-1.5c.826 0 1.499.673 1.499 1.5s-.673 1.5-1.499 1.5zm0-1.999c-.276 0-.5.224-.5.5 0 .275.224.5.5.5.275 0 .499-.224.499-.5s-.224-.5-.499-.5z" fill="#243242"/></g><g><path d="m17.499 18.999c-.827 0-1.5-.673-1.5-1.5s.673-1.5 1.5-1.5c.826 0 1.499.673 1.499 1.5s-.673 1.5-1.499 1.5zm0-1.999c-.276 0-.5.224-.5.5 0 .275.224.5.5.5.275 0 .499-.224.499-.5s-.224-.5-.499-.5z" fill="#243242"/></g><g><path d="m50.499 47.999c-.827 0-1.5-.673-1.5-1.5s.673-1.5 1.5-1.5c.826 0 1.499.673 1.499 1.5s-.673 1.5-1.499 1.5zm0-1.999c-.276 0-.5.224-.5.5 0 .275.224.5.5.5.275 0 .499-.224.499-.5s-.224-.5-.499-.5z" fill="#243242"/></g><g><path d="m50.499 18.999c-.827 0-1.5-.673-1.5-1.5s.673-1.5 1.5-1.5c.826 0 1.499.673 1.499 1.5s-.673 1.5-1.499 1.5zm0-1.999c-.276 0-.5.224-.5.5 0 .275.224.5.5.5.275 0 .499-.224.499-.5s-.224-.5-.499-.5z" fill="#243242"/></g><path d="m42 42h4v4h-4z" fill="#a8b0bc"/><path d="m35 42h4v4h-4z" fill="#d5cec2"/><path d="m22 43h10v3h-10z" fill="#c1c8d1"/><path d="m29.388 30h-12.389v2h11.619c.285-.653.541-1.321.77-2z" fill="#4d5d7a"/></g></svg>